<?xml version="1.0" encoding="UTF-8" standalone="no"?>
<!-- Created with Inkscape (http://www.inkscape.org/) -->

<svg
   xmlns:dc="http://purl.org/dc/elements/1.1/"
   xmlns:cc="http://creativecommons.org/ns#"
   xmlns:rdf="http://www.w3.org/1999/02/22-rdf-syntax-ns#"
   xmlns:svg="http://www.w3.org/2000/svg"
   xmlns="http://www.w3.org/2000/svg"
   xmlns:sodipodi="http://sodipodi.sourceforge.net/DTD/sodipodi-0.dtd"
   xmlns:inkscape="http://www.inkscape.org/namespaces/inkscape"
   version="1.1"
   id="svg4247"
   inkscape:version="0.91+devel r"
   width="1000"
   height="1153.3666"
   viewBox="0 0 1000 1153.3666"
   sodipodi:docname="scout-logo.svg">
  <metadata
     id="metadata4253">
    <rdf:RDF>
      <cc:Work
         rdf:about="">
        <dc:format>image/svg+xml</dc:format>
        <dc:type
           rdf:resource="http://purl.org/dc/dcmitype/StillImage" />
        <dc:title></dc:title>
      </cc:Work>
    </rdf:RDF>
  </metadata>
  <defs
     id="defs4251" />
  <sodipodi:namedview
     pagecolor="#ffffff"
     bordercolor="#666666"
     borderopacity="1"
     objecttolerance="10"
     gridtolerance="10"
     guidetolerance="10"
     inkscape:pageopacity="0"
     inkscape:pageshadow="2"
     inkscape:window-width="1280"
     inkscape:window-height="753"
     inkscape:document-units="px"
     id="namedview4249"
     showgrid="false"
     fit-margin-top="0"
     fit-margin-left="0"
     fit-margin-right="0"
     fit-margin-bottom="0"
     inkscape:zoom="0.125"
     inkscape:cx="487.17564"
     inkscape:cy="757.4974"
     inkscape:window-x="0"
     inkscape:window-y="0"
     inkscape:window-maximized="1"
     inkscape:current-layer="svg4247" />
  <path
     inkscape:connector-curvature="0"
     id="path4283"
     d="m 678.22835,1146.1976 -4.5453,-7.169 10.5334,-10.703 c 11.7272,-11.9161 13.8987,-12.6245 19.5516,-6.3781 3.7658,4.1613 3.4425,4.8379 -8.5402,17.8721 l -12.4542,13.547 z m -404.5008,-15.4501 -11.0964,-13.6388 5.4632,-4.1657 5.4632,-4.1657 11.2304,11.1734 c 11.1912,11.1342 11.2174,11.1948 7.5012,17.3196 -2.0512,3.3804 -4.5699,6.3644 -5.5973,6.6311 -1.0274,0.2667 -6.8613,-5.6526 -12.9643,-13.1539 z m 399.7856,-9.745 c 5.4733,-5.5769 11.487,-10.1398 13.3638,-10.1398 3.5751,0 -17.3966,20.0027 -21.1561,20.1785 -1.1875,0.055 2.3191,-4.4619 7.7923,-10.0387 z m -381.9806,-7.9384 c -6.0752,-6.168 -10.0276,-11.2145 -8.7831,-11.2145 2.9287,0 22.4275,19.8303 20.9509,21.307 -0.6171,0.617 -6.0926,-3.9246 -12.1678,-10.0925 z m 357.6367,-0.6187 c -3.961,-4.0867 -7.2019,-8.122 -7.2019,-8.9673 0,-2.3914 17.3173,-10.6415 22.337,-10.6415 5.2583,0 15.9687,4.5398 15.9687,6.7688 0,1.4919 -21.3612,20.2704 -23.0583,20.2704 -0.464,0 -4.0845,-3.3436 -8.0455,-7.4304 z m -348.0091,-9.6453 c -5.8867,-5.6162 -10.7031,-10.5396 -10.7031,-10.9407 0,-0.4012 3.048,-1.9919 6.7733,-3.535 8.5043,-3.5225 19.5639,-1.4395 26.3863,4.9698 l 5.2102,4.8948 -7.2339,7.4635 c -3.9787,4.1048 -7.7955,7.44 -8.4819,7.4113 -0.6863,-0.029 -6.0643,-4.6474 -11.9509,-10.2637 z m 143.2548,-12.1628 c 6.4249,-7.6356 9.334,-17.9621 7.0697,-25.0962 -1.3991,-4.408 -0.9395,-4.7216 4.9019,-3.3447 15.4566,3.6433 39.1178,11.1317 39.1139,12.3789 -0.01,2.6232 -21.4959,15.9015 -31.2615,19.3182 -5.4228,1.8973 -13.3712,3.4496 -17.6631,3.4496 h -7.8035 z m 111.9281,4.2357 c -8.7204,-1.6996 -22.5327,-6.2832 -22.5327,-7.4774 0,-0.2132 5.903,-6.4578 13.1179,-13.8769 12.8804,-13.2451 13.278,-13.4557 21.9693,-11.6396 4.8684,1.0172 11.133,1.2816 13.9215,0.5876 2.7884,-0.694 5.0698,-0.3062 5.0698,0.8618 0,1.168 3.5326,6.7515 7.8501,12.4078 l 7.8501,10.2842 -5.0335,3.282 c -5.1606,3.3648 -22.6492,8.0816 -28.6928,7.7387 -1.859,-0.1055 -7.9428,-1.0812 -13.5197,-2.1682 z m -158.9682,-7.1968 c -6.2585,-2.7386 -14.3702,-7.2287 -18.0262,-9.9778 l -6.6472,-4.9985 8.1136,-0.071 c 9.3592,-0.082 21.8892,-3.8909 26.8676,-8.1665 4.6931,-4.0307 29.2371,-1.6385 29.2371,2.8495 0,6.161 -6.3729,18.2387 -11.5297,21.8507 -6.9917,4.8971 -14.3162,4.5086 -28.0152,-1.486 z m 220.9793,-10.0792 c -7.4104,-8.0415 -15.802,-15.6818 -18.6478,-16.9785 -6.6143,-3.0136 -5.609,-5.7497 4.0755,-11.093 16.4893,-9.0977 37.674,-1.4491 55.1889,19.9256 l 8.0843,9.8658 h -6.764 c -8.4296,0 -18.0619,3.5599 -23.9568,8.8539 -4.4035,3.9545 -4.8147,3.7128 -17.9801,-10.5738 z m -287.2064,2.2519 c -8.0838,-6.2057 -11.6142,-7.5296 -18.3627,-6.886 l -8.3548,0.7967 6.7819,-8.5628 c 6.031,-7.6147 15.8724,-16.1678 23.618,-20.5264 1.7002,-0.9567 4.2691,2.0256 6.9921,8.1174 2.3675,5.2963 6.8973,12.1886 10.0662,15.3163 l 5.7616,5.6866 -8.2472,6.8706 -8.2472,6.8705 z m 176.9289,-9.4028 c -4.5799,-3.6397 -17.901,-9.8072 -29.6023,-13.7055 -11.7014,-3.8983 -21.2752,-7.4221 -21.2752,-7.8307 0,-0.4086 6.2364,-4.9998 13.8587,-10.2027 l 13.8586,-9.4598 17.1238,4.9075 c 22.1314,6.3426 41.2016,17.5182 40.3073,23.6211 -0.6877,4.6925 -18.1289,19.2877 -23.0488,19.2877 -1.5922,0 -6.6421,-2.978 -11.2221,-6.6176 z m -144.7656,-12.8694 c -6.106,-1.3217 -13.8798,-17.2296 -16.6064,-33.9821 -1.829,-11.238 -1.5565,-17.061 1.4956,-31.96395 l 1.1145,-5.4419 4.1161,6.7684 c 4.5791,7.52975 15.0303,16.50835 19.2159,16.50835 1.4947,0 3.9886,5.68 5.5422,12.6222 1.9261,8.6067 5.2682,15.3267 10.5057,21.124 6.0155,6.6585 7.0564,9.0202 4.8006,10.8924 -3.3305,2.7641 -23.0022,5.0273 -30.1842,3.4726 z m 192.7446,-11.3153 c -1.7009,-2.0697 -10.0863,-7.0107 -18.6344,-10.9801 l -15.5419,-7.2171 13.2886,-4.9821 c 19.6087,-7.3516 48.6332,-6.0371 67.1193,3.0397 l 13.2718,6.5166 -10.2617,3.8952 c -5.6439,2.1424 -13.2937,6.0543 -16.9995,8.6931 -8.5633,6.0975 -27.58,6.7078 -32.2422,1.0347 z m -124.7691,-3.2213 c -3.7179,-1.1497 -10.3779,-1.5116 -14.7999,-0.8041 -7.6568,1.225 -8.4373,0.719 -16.3685,-10.6106 l -8.3283,-11.8968 5.1021,-1.9589 c 6.5588,-2.5182 47.5259,-0.4705 58.8549,2.9418 l 8.6873,2.6167 -12.0672,10.9926 c -6.637,6.0459 -12.5743,10.9514 -13.194,10.9011 -0.6196,-0.05 -4.1685,-1.0321 -7.8864,-2.1818 z m 203.3084,-10.082 c -13.4728,-6.9148 -14.9894,-8.3352 -12.9564,-12.134 1.2665,-2.3664 2.3299,-7.6646 2.3632,-11.7737 0.057,-7.0102 0.9817,-7.8885 14.9848,-14.23115 8.2083,-3.7179 15.7022,-7.07 16.6531,-7.449 2.8185,-1.1235 7.0752,23.82275 5.412,31.71685 -1.8408,8.737 -7.7636,21.9681 -9.7646,21.8134 -0.7883,-0.061 -8.2997,-3.635 -16.6921,-7.9424 z m -196.5486,-31.2073 c -18.7528,-3.83765 -39.4323,-10.73375 -39.4323,-13.14965 0,-2.6615 11.2112,-13.794 17.025,-16.9054 3.3782,-1.808 10.1549,-1.6268 25.6341,0.6856 11.5731,1.7288 21.4251,3.5265 21.8934,3.9949 0.4684,0.4683 -0.6827,4.5235 -2.5579,9.0115 -1.8752,4.488 -3.4095,10.7276 -3.4095,13.8656 0,6.36425 -0.1571,6.38475 -19.1528,2.49745 z m 37.4802,1.5506 c -7.5032,-0.9103 -7.5693,-1.0189 -6.1247,-10.05335 2.0961,-13.1083 4.8191,-17.0071 13.1278,-18.7965 11.0421,-2.3781 19.5303,-7.2778 33.5398,-19.3605 l 12.6782,-10.9346 1.3115,6.5573 c 0.7213,3.6065 4.5683,10.2667 8.549,14.8004 l 7.2376,8.2431 -6.581,5.5069 c -23.8342,19.9439 -41.7594,26.70395 -63.7382,24.03725 z m 55.5319,0.1167 c -5.9441,-1.5602 21.6191,-21.59525 36.2362,-26.33925 6.643,-2.156 12.6465,-3.3516 13.3411,-2.657 1.746,1.746 -3.5531,23.8876 -6.5938,27.55145 -2.4046,2.8973 -33.4709,3.9416 -42.9835,1.4448 z m 60.3339,-6.90905 c 0.9528,-2.1688 2.1198,-7.9991 2.5932,-12.9563 1.7557,-18.3824 1.4279,-18.02 25.9926,-28.7425 12.7137,-5.5496 25.4843,-10.828 28.3791,-11.7298 4.7508,-1.4801 5.0251,-1.1946 2.8166,2.9319 -1.3457,2.5144 -2.4622,9.4547 -2.4811,15.4228 -0.018,5.9682 -0.7795,11.9879 -1.69,13.3772 -2.2396,3.4172 -28.0927,16.2748 -43.1203,21.4451 -14.8634,5.11385 -14.6241,5.10885 -12.4901,0.2516 z m -220.099,-4.8077 c -3.1054,-2.4427 -7.5021,-8.5568 -9.7703,-13.5868 l -4.1241,-9.1456 6.0444,-8.722 c 9.424,-13.5988 28.814,-26.2059 46.892,-30.4886 l 6.0881,-1.4422 -3.2715,7.8298 c -1.7993,4.3064 -3.2715,11.925 -3.2715,16.9302 0,7.0665 -1.333,10.2301 -5.9644,14.1553 -9.2669,7.854 -15.3141,14.0095 -21.3899,21.7729 l -5.5866,7.1384 -5.6462,-4.4413 z m 294.8287,-32.3712 c 1.0882,-13.4026 4.6151,-24.2226 7.8958,-24.2226 1.2162,0 10.4724,-3.8683 20.5694,-8.5962 l 18.3582,-8.5962 v 16.3615 c 0,8.9989 -1.014,17.3301 -2.2533,18.514 -2.4449,2.3354 -40.5316,18.3692 -43.6344,18.3692 -1.0429,0 -1.4639,-5.3234 -0.9357,-11.8297 z m -359.6641,1.6323 c -10.4087,-4.2616 -19.3085,-8.1321 -19.7775,-8.601 -1.7774,-1.7775 19.9361,-21.7584 23.5977,-21.7147 2.111,0.025 12.6006,3.3653 23.31,7.4226 l 19.4718,7.3767 -4.8255,4.7637 c -2.654,2.62 -7.1841,7.8985 -10.0667,11.7302 -2.8827,3.8317 -6.9386,6.9226 -9.0131,6.8687 -2.0746,-0.054 -12.288,-3.5846 -22.6967,-7.8462 z m 165.4921,0.6572 c -2.2906,-1.2819 -13.1374,-2.8423 -24.1041,-3.4676 -22.8974,-1.3056 -23.2264,-1.7489 -13.948,-18.7964 l 5.9912,-11.0079 h 13.952 c 7.6735,0 17.3986,1.1747 21.6112,2.6106 8.9848,3.0624 26.8122,14.7602 26.8122,17.5933 0,2.2548 -11.9835,10.0127 -20.4231,13.2214 -3.7805,1.4374 -7.142,1.3852 -9.8914,-0.1534 z m 79.0187,-1.9251 c -5.7066,-4.4888 -12.6518,-15.2817 -12.6518,-19.6609 0,-2.8421 23.8272,-13.2772 37.5499,-16.4447 6.7304,-1.5536 16.4204,-1.9708 23.9433,-1.0309 12.4,1.5493 27.5358,9.2315 26.9451,13.6761 -0.4391,3.3046 -29.374,14.638 -37.5189,14.6957 -7.5706,0.054 -24.6315,6.9638 -27.1151,10.9823 -2.1946,3.5509 -4.3686,3.1187 -11.1525,-2.2176 z m 177.4874,-20.6438 c -0.1442,-2.7884 -1.0305,-9.7991 -1.9696,-15.5792 l -1.7076,-10.5093 19.511,-12.5867 c 10.7311,-6.9227 19.9197,-12.5867 20.4192,-12.5867 0.4994,0 0.7908,1.7744 0.6474,3.9432 -0.1434,2.1688 1.03,7.7995 2.6075,12.5127 3.8011,11.3565 1.8749,17.5588 -7.0736,22.7764 -16.292,9.4993 -29.9792,17.02 -31.0455,17.0586 -0.6196,0.023 -1.2446,-2.2406 -1.3888,-5.029 z m -481.3745,-7.6344 c -9.6046,-5.6281 -17.4565,-10.9024 -17.4487,-11.7206 0.01,-0.8183 2.7963,-3.2246 6.1965,-5.3475 3.4003,-2.1228 9.0196,-6.1596 12.4873,-8.9707 l 6.3051,-5.1111 21.1669,11.224 c 19.5785,10.3818 20.7963,11.4195 16.2277,13.8282 -2.7166,1.4322 -7.2511,5.7416 -10.0766,9.5764 -7.0599,9.5817 -13.7012,8.9189 -34.8582,-3.4787 z m 536.84182,-24.423 c 0,-3.2498 -1.60348,-9.0095 -3.56328,-12.7993 -4.90477,-9.4848 -2.62024,-16.0069 8.62741,-24.6305 5.27017,-4.0407 12.87753,-10.4107 16.90525,-14.1555 5.60919,-5.2153 7.32314,-5.9306 7.32314,-3.0563 0,2.0639 2.10487,7.7908 4.67748,12.7264 7.14449,13.707 5.42194,17.4581 -15.38052,33.4939 -17.91894,13.813 -18.58948,14.1168 -18.58948,8.4213 z m -591.74112,-12.9609 c -13.9901,-11.0511 -16.8258,-14.2209 -13.3346,-14.9061 2.4388,-0.4786 7.5086,-3.1948 11.2663,-6.036 11.0965,-8.39 14.8569,-7.7617 33.551,5.6063 16.8151,12.0242 20.2589,15.852 14.2617,15.852 -1.6271,0 -5.8727,3.0419 -9.4346,6.7598 -9.7551,10.1822 -15.7223,8.9864 -36.3098,-7.276 z m 639.72231,-35.154 c -7.91362,-17.4267 -7.67792,-18.4075 8.66498,-36.0594 8.22282,-8.8814 15.57183,-16.148 16.33117,-16.148 0.75933,0 1.38061,1.562 1.38061,3.4712 0,1.9091 1.98012,6.2185 4.40027,9.5763 10.42207,14.4604 7.83409,21.3551 -15.28,40.7073 l -10.71896,8.9744 z m -687.91021,-8.2686 c -11.2342,-11.3097 -15.4714,-16.8995 -12.8101,-16.8995 2.1871,0 7.9516,-2.028 12.8101,-4.5066 4.8585,-2.4786 10.6484,-4.458 12.8665,-4.3986 4.9425,0.1322 39.205,31.4306 34.4119,31.4349 -1.881,0 -7.1506,2.5379 -11.7101,5.6362 -12.9969,8.8316 -16.8016,7.6264 -35.5683,-11.2664 z m 338.1579,2.3982 c -32.64,-19.4424 -58.7983,-44.4193 -75.4079,-72.0024 l -7.836,-13.0129 8.0871,-12.6422 c 15.6864,-24.5216 34.4307,-73.3945 34.4307,-89.7723 v -5.3925 l 23.096,1.4508 c 12.7028,0.7979 23.4477,1.7462 23.8774,2.1071 0.4298,0.361 1.6651,18.7264 2.7453,40.8122 1.8616,38.0652 5.4408,72.4015 7.7923,74.753 4.3733,4.3733 7.12,-14.4924 10.2868,-70.6551 1.3975,-24.786 2.6848,-45.1825 2.8606,-45.3257 0.1758,-0.1431 10.5313,-0.9376 23.0123,-1.7654 l 22.6927,-1.505 2.7935,15.1611 c 3.9132,21.2377 16.4305,52.6733 29.6331,74.4197 l 11.2025,18.452 -4.9505,8.5873 c -15.6565,27.1579 -44.7674,56.3468 -73.0796,73.2754 -9.7593,5.8354 -19.2651,11.1525 -21.1241,11.8157 -1.8589,0.6633 -10.9094,-3.279 -20.1122,-8.7608 z m 398.66177,-31.0828 c 0,-1.7518 -3.0137,-7.1681 -6.69712,-12.0362 -3.68343,-4.8681 -6.72533,-10.7551 -6.75981,-13.0821 -0.0344,-2.327 4.86093,-10.9458 10.8787,-19.1528 6.01776,-8.207 12.07074,-16.9498 13.4511,-19.4284 2.0384,-3.6602 2.52259,-3.8061 2.57824,-0.7765 0.0376,2.0515 3.61743,7.9778 7.95497,13.1695 9.23391,11.0522 9.57672,13.7801 2.92969,23.3115 -10.66956,15.2993 -24.33577,31.0205 -24.33577,27.995 z m -762.00567,-1.1207 c -3.1898,-0.7438 -31.145796,-34.6126 -31.145796,-37.7334 0,-0.5745 1.4026,-0.5064 3.1169,0.1515 1.7143,0.6578 6.908,-0.388 11.541496,-2.3241 15.3732,-6.4233 18.8688,-4.9416 34.1214,14.4628 13.8513,17.6218 13.8528,17.6254 7.8864,18.6651 -3.2822,0.5719 -9.5165,2.5293 -13.854,4.3497 -4.3376,1.8204 -9.5874,2.9133 -11.6664,2.4285 z m 800.31128,-50.6176 c 0,-2.0284 -3.54889,-7.3423 -7.88645,-11.8088 -4.33755,-4.4664 -7.88644,-10.259 -7.88644,-12.8723 0,-3.5211 14.56829,-33.6068 19.27757,-39.8112 1.27681,-1.6821 21.2813,19.7836 21.2813,22.8358 0,3.107 -14.53931,30.4833 -21.72141,40.8997 -2.52952,3.6686 -3.06457,3.8007 -3.06457,0.7568 z M 65.693254,748.43065 c -6.5063,-11.1611 -11.8297,-20.7338 -11.8297,-21.2727 0,-0.5388 2.4998,-0.5019 5.555,0.082 3.0551,0.584 8.7522,-0.053 12.66,-1.415 11.6607,-4.0649 15.8651,-1.2564 28.240396,18.8647 l 11.5296,18.7461 -8.1497,1.4425 c -4.482396,0.7933 -12.205596,1.983 -17.162796,2.6438 l -9.0131,1.2014 z m 269.829296,15.6603 c -18.5685,-3.9892 -35.801,-17.5825 -44.5703,-35.1577 -3.7842,-7.5844 -10.0071,-25.9678 -8.7633,-25.8883 0.21,0.013 5.3592,1.5344 11.4428,3.3799 15.0303,4.5596 25.8981,4.2176 40.5843,-1.2772 16.6222,-6.2192 30.7348,-21.8198 36.5048,-40.3538 2.5044,-8.0445 5.2938,-13.2031 6.8286,-12.6285 1.427,0.5343 12.8342,2.2125 25.3493,3.7293 26.4292,3.2032 25.96,2.4651 17.9878,28.2991 -17.2902,56.0294 -50.739,87.336 -85.364,79.8972 z m 299.8798,-2.8485 c -12.8321,-3.6869 -34.1804,-27.1569 -44.7914,-49.2429 -8.2865,-17.2479 -16.2417,-41.7214 -16.2417,-49.9662 0,-2.3068 6.2242,-3.97 23.096,-6.1717 12.7028,-1.6576 24.1465,-3.4109 25.4303,-3.8961 1.2839,-0.4852 3.5077,3.505 4.9419,8.8672 3.9038,14.5959 16.0009,30.9874 28.5921,38.7423 10.0786,6.2073 12.8337,6.8254 30.4192,6.8254 10.6353,0 21.7519,-0.8712 24.7037,-1.936 5.2053,-1.8778 5.3181,-1.6768 3.75,6.6819 -3.6579,19.4987 -16.8175,36.4964 -35.4722,45.8183 -14.6935,7.3424 -28.9756,8.7176 -44.4279,4.2778 z M 50.223854,711.91335 c -2.8976,-1.0719 -7.0751,-7.7277 -11.4526,-18.2464 -11.5373,-27.7238 -12.0334,-25.6393 6.0564,-25.4485 8.6403,0.091 16.0998,0.6076 16.5768,1.1477 0.9597,1.0865 19.4984,40.6789 19.4984,41.6419 0,0.332 -1.7952,0.1343 -3.9894,-0.4395 -2.1941,-0.5738 -8.0705,-0.1262 -13.0587,0.9945 -4.9881,1.1208 -11.122,1.2784 -13.6309,0.3503 z m 898.188406,-0.5847 c 0,-1.6271 -3.12918,-5.9365 -6.95373,-9.5765 -12.40289,-11.8041 -12.46099,-12.8927 -1.90045,-35.5871 l 9.58731,-20.6029 10.89979,10.6336 c 5.99492,5.8485 10.89982,12.2061 10.89982,14.128 0,3.7608 -19.5956,43.9632 -21.42873,43.9632 -0.6072,0 -1.10401,-1.3313 -1.10401,-2.9583 z M 53.139554,654.22675 c -0.8114,-0.8114 -6.8889,-1.2983 -13.5056,-1.0821 -9.0499,0.2957 -12.8874,-0.5949 -15.4895,-3.5947 -3.0056,-3.465 -13.093,-36.3012 -13.093,-42.6198 0,-2.1023 4.1567,-1.6893 28.7292,2.8547 2.8714,0.5309 5.1251,2.6288 5.1973,4.8378 0.07,2.1451 2.9089,12.2655 6.3085,22.4898 5.5935,16.8223 6.0831,21.3443 1.8531,17.1143 z m 917.058046,-6.0533 c -3.5092,-2.6755 -9.23688,-7.4723 -12.72805,-10.6595 l -6.34755,-5.7949 5.25632,-21.2444 c 2.89097,-11.6843 5.3232,-21.6549 5.40493,-22.1568 0.0817,-0.5019 1.92309,0.6362 4.09185,2.529 2.1688,1.8929 7.7084,5.1898 12.3102,7.3265 4.6018,2.1367 8.9027,5.5732 9.5577,7.6366 0.933,2.9399 -8.6219,44.777 -10.6793,46.7601 -0.2671,0.2573 -3.3568,-1.7211 -6.8661,-4.3966 z m -519.75825,-5.2321 c -53.793,-5.2722 -83.3749,-10.6693 -96.9465,-17.6875 -7.1268,-3.6854 -8.7567,-10.1087 -3.6421,-14.3534 5.6031,-4.6502 28.0102,-11.1748 52.6124,-15.3198 34.8772,-5.8763 156.8489,-5.9509 193.5851,-0.1185 43.0071,6.8279 62.1452,14.9201 57.1889,24.1811 -5.1163,9.5598 -43.3847,18.4394 -96.8941,22.4828 -28.2715,2.1363 -87.7535,2.5942 -105.9037,0.8153 z m 152.9158,-18.7472 c 25.0342,-3.0826 34.7954,-6.0983 29.4402,-9.0953 -14.1824,-7.937 -115.1387,-13.0703 -182.9193,-9.3007 -59.149,3.2895 -86.7429,7.0539 -84.0186,11.4619 1.6304,2.638 26.3688,6.7005 55.4172,9.1005 31.2935,2.5856 155.4901,1.1079 182.0805,-2.1664 z M 25.092354,592.57015 C 6.7688542,589.89825 6.5996542,589.61075 2.4162542,554.03965 l -1.75370001,-14.9113 7.37530001,3.0816 c 4.0564998,1.6949 9.6893998,3.1139 12.5175998,3.1533 8.9712,0.125 12.1055,4.8223 14.9873,22.4611 1.5186,9.2947 3.33,19.1809 4.0254,21.9694 0.6954,2.7884 0.394,4.9433 -0.6699,4.7887 -1.0638,-0.1546 -7.2765,-1.0601 -13.8059,-2.0123 z m 965.213546,-4.1584 c -1.054,-1.6896 -6.2144,-4.9732 -11.4676,-7.2969 -14.31211,-6.3309 -14.52786,-6.9411 -11.6063,-32.8223 l 2.5863,-22.9117 5.3195,4.3222 c 2.9258,2.3772 7.0095,4.3222 9.0751,4.3222 8.3205,0 13.7775,6.5903 13.6329,16.464 -0.2279,15.5475 -5.3686,41.4032 -7.5399,37.9225 z m -791.75035,-4.5692 c -45.8484,-15.8368 -77.5788,-67.1324 -74.0245,-119.6687 2.2961,-33.9383 13.8631,-59.7703 37.4294,-83.5884 33.0274,-33.3805 80.9598,-44.0004 126.7387,-28.08 50.0065,17.3906 95.2744,71.2734 120.9065,143.9163 7.6566,21.6993 16.0477,59.5141 16.0477,72.3198 0,8.0036 -0.1091,8.0972 -9.5764,8.2152 -5.267,0.065 -17.6882,1.4657 -27.6026,3.1111 -9.9144,1.6455 -18.0841,2.8592 -18.1549,2.6972 -0.071,-0.1619 -2.9573,-7.6676 -6.4146,-16.6791 -15.3843,-40.1003 -46.0786,-64.5712 -75.5408,-60.2244 -31.5645,4.6569 -50.0617,27.932 -50.586,63.6525 l -0.2728,18.5894 -13.5197,-0.073 c -7.4358,-0.04 -18.8793,-1.9247 -25.43,-4.1875 z m 17.3605,-108.0398 6.6417,-13.1571 13.726,2.2105 c 7.5492,1.2158 14.4528,1.4836 15.3413,0.5952 0.8884,-0.8884 -3.1834,-6.1493 -9.0484,-11.6908 l -10.6638,-10.0755 6.7718,-13.415 c 3.7246,-7.3782 5.7658,-13.4149 4.5361,-13.4149 -1.2297,0 -7.8379,2.7475 -14.685,6.1056 l -12.4491,6.1057 -11.5442,-11.1755 -11.5442,-11.1755 1.3674,10.7014 c 0.7521,5.8859 1.9536,13.0372 2.6701,15.892 1.1259,4.4859 -0.3974,6.0799 -11.223,11.7437 -6.8892,3.6042 -12.5258,7.2725 -12.5258,8.1517 0,1.5566 3.6223,2.4774 20.6709,5.2544 l 8.2779,1.3484 1.561,14.5763 c 0.8586,8.0171 2.4423,14.5765 3.5194,14.5765 1.077,0 4.947,-5.9207 8.5999,-13.1571 z m 546.5442,93.9684 c -0.09,-29.725 -9.504,-46.679 -32.5055,-58.5406 -13.7507,-7.0911 -35.5976,-7.0985 -49.2784,-0.015 -18.6065,9.6316 -39.0023,36.7431 -46.7358,62.1244 -1.5304,5.0228 -3.8354,8.9001 -5.1224,8.6163 -1.2869,-0.2838 -14.0644,-1.7382 -28.3944,-3.2319 -30.1705,-3.1449 -28.1906,-0.2878 -22.5717,-32.5726 4.2397,-24.3603 15.8637,-59.8046 27.8112,-84.8036 27.2396,-56.9959 68.4362,-97.7297 112.2848,-111.0233 62.64032,-18.9907 129.6037,15.9972 151.82924,79.3297 5.93725,16.9183 8.15696,51.9762 4.33931,68.5345 -11.46492,49.727 -50.62626,86.9005 -94.20502,89.4232 l -17.39423,1.007 -0.057,-18.8464 z m 33.91044,-92.8581 c 0.82783,-6.6258 2.24297,-13.2406 3.14475,-14.6998 0.90179,-1.4591 7.5336,-3.6122 14.73735,-4.7846 7.20374,-1.1725 13.53691,-2.5709 14.07366,-3.1076 0.53675,-0.5368 -4.96286,-4.3698 -12.22131,-8.5179 l -13.19724,-7.5419 1.64428,-9.0131 c 0.90436,-4.9572 1.70271,-12.0169 1.77414,-15.6882 l 0.12985,-6.6751 -11.333,11.1626 -11.33299,11.1626 -12.39153,-6.4879 c -6.8153,-3.5682 -12.9734,-5.9058 -13.6847,-5.1946 -0.7112,0.7112 1.436,7.0621 4.7716,14.113 l 6.0648,12.8198 -10.9029,11.1401 -10.9029,11.1402 16.2233,-1.5634 16.22337,-1.5635 6.21542,12.673 c 3.41847,6.9702 6.94521,12.6731 7.83716,12.6731 0.89196,0 2.29906,-5.4211 3.12689,-12.0468 z m -354.84994,80.3235 c -4.77,-29.7944 -17.1856,-66.1577 -41.927,-122.7976 -25.515,-58.411 -33.034,-80.7782 -37.0807,-110.3063 -6.3139,-46.0723 11.5083,-97.2424 47.2738,-135.7304 5.6284,-6.0567 22.401,-20.6977 37.2726,-32.5357 14.8716,-11.8379 32.8657,-27.059 39.987,-33.8247 l 12.9479,-12.3014 11.8381,11.1621 c 6.511,6.1393 24.0059,20.8929 38.8775,32.786 42.8525,34.2701 62.0885,56.9749 75.5558,89.1806 22.0582,52.7504 17.0822,96.0349 -20.7428,180.4313 -29.2714,65.3113 -39.6006,94.6207 -45.7116,129.7068 -1.9262,11.0597 -3.7481,20.1855 -4.0486,20.2794 -0.3005,0.094 -10.2679,-0.1485 -22.1499,-0.5385 l -21.6037,-0.7094 -1.4904,-113.0808 c -0.8197,-62.1945 -1.9081,-115.6158 -2.4185,-118.714 -0.5104,-3.0984 -1.5543,-22.3638 -2.3197,-42.8122 -1.5202,-40.6094 -3.7577,-74.8674 -4.8204,-73.8047 -1.8378,1.8378 -3.3594,17.8178 -5.3114,55.7786 -3.7672,73.2638 -4.5425,98.2709 -6.0948,196.5979 l -1.5207,96.3273 h -18.6126 c -10.237,0 -20.0692,0.5589 -21.8492,1.2419 -2.5129,0.9643 -3.8656,-2.688 -6.0507,-16.3362 z M 23.444454,530.99445 c -3.7179,-1.1134 -10.3087,-3.2085 -14.6462998,-4.656 l -7.88640001,-2.6317 -0.6411,-25.6795 c -0.6117,-24.5072 -0.4575,-25.5156 3.38000001,-22.0896 2.2115,1.9744 8.3129998,4.7326 13.5589998,6.1293 5.2626,1.4011 10.6031,4.5295 11.9141,6.979 1.3108,2.4493 2.0856,13.3012 1.7283,24.2061 l -0.6478,19.7666 z m 973.413146,-7.8421 c -1.2393,-1.1563 -6.3092,-3.367 -11.2664,-4.9127 -15.2519,-4.7557 -16.1348,-6.4267 -16.6275,-31.4699 l -0.4409,-22.4163 6.2809,3.2762 c 3.4546,1.8019 8.4501,3.2825 11.1012,3.2901 2.6511,0.01 7.0024,1.7883 9.6695,3.9571 4.4828,3.6452 4.7997,5.6983 4.1929,27.1606 -0.434,15.3517 -1.4198,22.5051 -2.9097,21.1149 z M 28.268954,471.44805 c -0.8986,-1.4539 -5.6308,-3.841 -10.516,-5.3046 -15.8045998,-4.7352 -16.82599981,-7.3694 -13.4543998,-34.6979 l 2.9297,-23.7471 4.7281998,4.2137 c 2.6005,2.3175 8.0623,5.5308 12.1374,7.1406 10.8319,4.2791 11.9667,8.031 9.3131,30.7933 -2.7874,23.9097 -3.0442,24.9898 -5.138,21.602 z m 968.109146,-12.035 c -1.3792,-1.3791 -7.3883,-3.4193 -13.3538,-4.5338 -5.9654,-1.1144 -12.0064,-3.2815 -13.4244,-4.8156 -1.418,-1.5342 -3.7885,-10.9011 -5.26787,-20.8155 -1.47934,-9.9144 -3.22752,-19.8877 -3.8848,-22.1628 -1.02449,-3.5462 -0.54256,-3.7874 3.37656,-1.69 2.51441,1.3457 8.25381,2.4467 12.75431,2.4467 15.9669,0 17.7093,3.495 22.1853,44.5021 1.1579,10.608 1.1568,10.6111 -2.3853,7.0689 z M 35.837454,410.10685 c 0,-1.2329 -4.5951,-4.4016 -10.2112,-7.0416 -14.756,-6.9361 -15.3501,-9.259 -8.6451,-33.7993 3.1761,-11.6246 6.1349,-21.5098 6.5751,-21.9672 0.4401,-0.4573 2.4655,0.8338 4.5009,2.8691 2.0354,2.0354 6.6165,5.2086 10.1802,7.0514 10.4388,5.3981 11.3924,9.5293 6.5258,28.2698 -2.3881,9.1959 -4.3593,19.0013 -4.3806,21.7897 -0.021,2.7884 -1.0526,5.0698 -2.2918,5.0698 -1.2393,0 -2.2533,-1.0087 -2.2533,-2.2417 z M 986.7179,394.32245 c -1.859,-1.2014 -8.0025,-2.1998 -13.6523,-2.2188 -5.6498,-0.018 -11.82536,-1.302 -13.72342,-2.8511 -1.89807,-1.5491 -5.64626,-10.6063 -8.32934,-20.1269 -2.68305,-9.5208 -5.40462,-18.6821 -6.04795,-20.3586 -1.55425,-4.0503 27.96451,-3.0836 31.81741,1.042 2.0906,2.2385 15.1713,46.8651 13.6979,46.7321 -0.2103,-0.019 -1.9034,-1.0174 -3.7623,-2.2187 z m -945.874846,-53.1545 -11.894,-11.6974 4.3882,-10.9495 c 13.5306,-33.7618 14.3747,-35.2788 16.9638,-30.4848 1.3398,2.4807 5.2307,6.7022 8.6467,9.381 11.3195,8.8769 11.6254,11.6969 3.6134,33.3037 -4.0102,10.8145 -7.8611,20.2211 -8.5577,20.9036 -0.6966,0.6825 -6.6188,-4.023 -13.1604,-10.4566 z m 915.072656,-9.7381 c -8.88575,-0.7291 -16.60792,-1.8326 -17.16041,-2.4523 -0.55247,-0.6197 -5.15748,-10.056 -10.23336,-20.9698 -7.52494,-16.1794 -8.51684,-19.7439 -5.3723,-19.3062 2.12109,0.2951 8.12315,-0.2367 13.33792,-1.1817 13.31341,-2.413 17.69193,-0.3257 22.15169,10.5602 7.00525,17.0991 14.23205,35.4113 13.82825,35.0397 -0.2177,-0.2002 -7.66605,-0.9608 -16.55179,-1.6899 z M 66.792554,283.77435 c -5.8716,-5.9435 -10.6757,-12.0799 -10.6757,-13.6363 0,-1.5565 5.2629,-11.7196 11.6952,-22.5847 l 11.6952,-19.755 3.7551,6.0874 c 2.0653,3.3482 5.9282,8.0192 8.5842,10.38 6.9867,6.2101 6.0297,12.7524 -4.7746,32.6386 l -9.6038,17.6767 z m 844.777506,-12.2403 c -2.12574,-2.1258 -5.87014,-7.5616 -8.32092,-12.0796 -2.4508,-4.5182 -6.925,-11.9065 -9.9427,-16.4185 l -5.48672,-8.2038 4.94697,0.1086 c 2.72082,0.06 9.87095,-1.304 15.88912,-3.0305 10.84921,-3.1127 10.98404,-3.0868 15.87153,3.0427 2.71113,3.4 8.7013,13.1654 13.31147,21.7009 8.17628,15.1379 8.25688,15.5174 3.2813,15.4594 -2.80545,-0.033 -9.73231,0.693 -15.39297,1.613 -8.25664,1.3418 -11.05653,0.9081 -14.15708,-2.1924 z m -805.88121,-31.9054 c 0,-2.4617 -2.5686,-6.7092 -5.707996,-9.4389 -6.5363,-5.6831 -10.8226,-15.2732 -8.5525,-19.1348 0.8495,-1.445 7.0805,-9.8728 13.846696,-18.728 l 12.3021,-16.1006 7.5755,11.2572 c 4.1665,6.1914 7.5754,13.1216 7.5754,15.4002 0,2.2788 -5.6732,12.0633 -12.6072,21.743 -15.3094,21.372 -14.432,20.4601 -14.432,15.0019 z m 769.90517,-22.5297 c -3.10737,-3.53 -9.73778,-11.4004 -14.73426,-17.4897 l -9.08447,-11.0715 11.36325,-5.2647 c 17.93698,-8.3103 19.69344,-7.6503 35.24728,13.2434 l 13.77784,18.5081 -10.60491,3.0096 c -20.54733,5.8311 -19.99075,5.8511 -25.96473,-0.9352 z m -731.59957,-25.9709 c 0,-1.5057 -2.5625,-6.4354 -5.6944,-10.9547 -9.9987,-14.4283 -9.4444,-16.7484 8.3978,-35.149 8.8464,-9.1235 16.927,-16.588 17.9568,-16.588 1.0299,0 1.8725,2.0685 1.8725,4.5963 0,2.528 2.0876,8.6883 4.639,13.6896 2.5515,5.0013 4.326,10.4218 3.9433,12.0457 -1.013,4.2981 -31.115,35.6047 -31.115,32.3601 z m 677.9753,-32.2572 c -12.95389,-12.6456 -14.3249,-14.7351 -10.47069,-15.9584 2.43922,-0.7742 8.02078,-3.841 12.40345,-6.8152 4.38268,-2.9742 9.57765,-5.4076 11.54432,-5.4076 1.96669,0 10.85685,7.2325 19.7559,16.072 l 16.18007,16.0722 -10.49393,5.3246 c -16.91371,8.5818 -21.81119,7.4131 -38.91912,-9.2876 z m -635.1632,-12.3286 c 0,-2.5315 -2.0279,-8.3863 -4.5065,-13.0108 -7.634,-14.2432 -6.7666,-15.8432 19.0669,-35.1685 l 13.3422,-9.981 4.0013,11.5774 c 6.18,17.8813 5.6143,19.8922 -8.8078,31.3077 -7.126,5.6404 -15.2378,12.4202 -18.0262,15.0663 -5.0369,4.7801 -5.0699,4.7814 -5.0699,0.2089 z m 587.1391,-27.292 c -9.8254,-7.3406 -16.4162,-13.3563 -14.6463,-13.3684 1.7699,-0.017 7.6701,-3.5609 13.1115,-7.8864 5.44147,-4.3255 11.35543,-7.8646 13.14215,-7.8646 1.78674,0 11.27927,6.2125 21.09454,13.8054 l 17.84594,13.8055 -11.83524,7.543 c -6.50938,4.1485 -13.86319,7.4909 -16.34178,7.4274 -2.4786,-0.063 -12.54547,-6.1214 -22.37081,-13.4619 z m -538.4988,-9.662 c 0.7475,-1.948 -0.3579,-8.0374 -2.4564,-13.5322 -2.0985,-5.4949 -3.1561,-12.0681 -2.3501,-14.6073 0.8481,-2.6724 9.7198,-9.4122 21.0646,-16.003 l 19.5993,-11.3862 1.8546,14.8549 c 1.02,8.1702 1.3615,16.1399 0.7589,17.7101 -0.6026,1.5704 -6.507,5.9944 -13.1209,9.8309 -6.6139,3.8367 -15.3291,9.1579 -19.3672,11.8251 -5.6469,3.7297 -7.0281,4.0317 -5.9828,1.3077 z m 489.6276,-21.478 -19.4169,-10.4285 10.806,-10.6749 c 5.9434,-5.8714 12.0257,-10.6752 13.5163,-10.6752 1.4906,0 11.8238,5.2154 22.9627,11.5896 17.3314,9.9181 19.6449,11.9108 16.0403,13.8165 -2.3167,1.2246 -7.2541,4.9884 -10.972,8.3639 -3.7179,3.3754 -8.2808,6.6546 -10.1397,7.2871 -1.859,0.6326 -12.1175,-3.5427 -22.7967,-9.2785 z m -435.9971,-10.5254 c 0.7496,-1.9534 0.2594,-7.9337 -1.0893,-13.2899 -1.7272,-6.8595 -1.7492,-11.0515 -0.074,-14.1809 2.0124,-3.7601 36.7207,-20.819 42.3665,-20.82284 2.4733,-0.002 1.8526,29.08594 -0.6739,31.57784 -1.0836,1.0689 -10.9525,6.0662 -21.9309,11.1053 -14.1861,6.5114 -19.5665,8.1345 -18.5979,5.6105 z m 383.3092,-13.7302 c -7.4358,-3.135 -15.8027,-6.5961 -18.5932,-7.6914 l -5.0736,-1.9916 7.3269,-9.9538 c 11.3969,-15.48331 13.4715,-15.80802 37.5492,-5.87555 20.4516,8.43655 25.7302,11.22965 21.223,11.22965 -1.2416,0 -6.8858,4.5628 -12.5426,10.1397 -5.6567,5.5769 -11.6541,10.073 -13.3275,9.9914 -1.6734,-0.082 -9.1264,-2.7133 -16.5622,-5.8484 z M 346.77565,40.73726 c 0.6372,-8.57698 1.814,-16.25002 2.6151,-17.05101 1.6901,-1.69023 39.8898,-12.42002 44.2169,-12.42002 2.1805,0 2.326,1.09462 0.5792,4.35843 -1.2829,2.39714 -2.3326,8.86392 -2.3326,14.37044 0,5.50653 -1.2674,10.99568 -2.8166,12.19825 -2.2675,1.76009 -39.5654,14.1383 -42.6013,14.1383 -0.4507,0 -0.298,-7.0174 0.3393,-15.59439 z m 263.2024,3.30929 c -17.8022,-4.31534 -27.0664,-7.99427 -20.1314,-7.99427 1.4899,0 4.6342,-4.49162 6.9874,-9.98126 6.1337,-14.30945 9.8175,-15.58589 29.6848,-10.28593 32.8041,8.75112 30.737,7.87191 25.334,10.77608 -2.6185,1.40747 -6.0567,5.68752 -7.6405,9.51133 -4.9359,11.91635 -11.5839,13.46465 -34.2343,7.97405 z m -205.1675,-5.90078 c 1.5492,-1.64712 2.8166,-6.80019 2.8166,-11.45124 0,-16.76624 2.7539,-19.24794 24.496,-22.0749 10.6935,-1.39025 21.5765,-2.82963 24.1844,-3.19846 4.4123,-0.62419 4.5306,-0.26656 1.7038,5.15056 -1.6707,3.20164 -3.044,8.49726 -3.0516,11.76809 -0.025,10.47259 -6.2532,14.90873 -24.7999,17.66283 -9.2947,1.38022 -19.4344,3.10087 -22.5327,3.82365 -4.621,1.07824 -5.1271,0.77626 -2.8166,-1.68053 z m 141.0511,-4.8643 -18.3679,-2.14278 3.0207,-5.993 c 1.6614,-3.29607 4.2056,-9.25464 5.6539,-13.24107 1.4483,-3.98659 4.6561,-7.89029 7.1285,-8.67507 2.4724,-0.78462 14.5918,-0.18985 26.932,1.32173 21.9135,2.68441 22.3333,2.84484 18.0056,6.87672 -2.4371,2.27046 -5.621,7.73354 -7.0753,12.14026 -2.6116,7.91302 -8.1973,12.78082 -13.9649,12.17001 -1.6306,-0.17263 -11.2303,-1.27828 -21.3326,-2.4568 z m -79.6494,-3.86142 c 0,-1.16314 0.8771,-2.657 1.9492,-3.31962 1.0721,-0.66246 2.5019,-5.32504 3.1773,-10.36096 C 473.34725,0.76506 474.88085,0 502.88975,0 c 23.5141,0 24.6688,0.21341 21.3397,3.94314 -1.9357,2.16885 -4.6788,8.29722 -6.0958,13.61858 -1.7508,6.57474 -4.2093,10.29612 -7.6717,11.6125 -6.998,2.66068 -44.2497,2.86757 -44.2497,0.24583 z"
     style="fill:#4b1671;fill-opacity:1;stroke-width:2.25327134" />
</svg>
